<mxfile host="app.diagrams.net" modified="2020-08-20T10:22:52.349Z" agent="5.0 (Macintosh; Intel Mac OS X 10_15_5) AppleWebKit/537.36 (KHTML, like Gecko) Chrome/84.0.4147.125 Safari/537.36" etag="g81no8HVAE1swxnnPXA2" version="13.6.2" type="github">
  <diagram id="P7SqeYAFrmFxCE5cbQZH" name="Page-1">
    <mxGraphModel dx="2066" dy="1105" grid="1" gridSize="10" guides="1" tooltips="1" connect="1" arrows="1" fold="1" page="1" pageScale="1" pageWidth="827" pageHeight="1169" math="0" shadow="0">
      <root>
        <mxCell id="0" />
        <mxCell id="1" parent="0" />
        <mxCell id="bZIm4o_4vREuz8kMKyic-1" value="CPU 0" style="rounded=0;whiteSpace=wrap;html=1;fillColor=#dae8fc;strokeColor=#6c8ebf;" vertex="1" parent="1">
          <mxGeometry x="200" y="200" width="100" height="120" as="geometry" />
        </mxCell>
        <mxCell id="bZIm4o_4vREuz8kMKyic-2" value="L1 cache" style="rounded=0;whiteSpace=wrap;html=1;fillColor=#d5e8d4;strokeColor=#82b366;" vertex="1" parent="1">
          <mxGeometry x="200" y="320" width="100" height="40" as="geometry" />
        </mxCell>
        <mxCell id="bZIm4o_4vREuz8kMKyic-3" value="CPU 0" style="rounded=0;whiteSpace=wrap;html=1;fillColor=#dae8fc;strokeColor=#6c8ebf;" vertex="1" parent="1">
          <mxGeometry x="414" y="200" width="100" height="120" as="geometry" />
        </mxCell>
        <mxCell id="bZIm4o_4vREuz8kMKyic-4" value="L1 cache" style="rounded=0;whiteSpace=wrap;html=1;fillColor=#d5e8d4;strokeColor=#82b366;" vertex="1" parent="1">
          <mxGeometry x="414" y="320" width="100" height="40" as="geometry" />
        </mxCell>
        <mxCell id="bZIm4o_4vREuz8kMKyic-5" value="" style="endArrow=classic;startArrow=classic;html=1;entryX=0;entryY=0.5;entryDx=0;entryDy=0;exitX=1;exitY=0.5;exitDx=0;exitDy=0;edgeStyle=orthogonalEdgeStyle;curved=1;dashed=1;" edge="1" parent="1" source="bZIm4o_4vREuz8kMKyic-2" target="bZIm4o_4vREuz8kMKyic-4">
          <mxGeometry width="50" height="50" relative="1" as="geometry">
            <mxPoint x="270" y="480" as="sourcePoint" />
            <mxPoint x="320" y="430" as="targetPoint" />
            <Array as="points">
              <mxPoint x="300" y="310" />
              <mxPoint x="414" y="310" />
            </Array>
          </mxGeometry>
        </mxCell>
        <mxCell id="bZIm4o_4vREuz8kMKyic-6" value="cache coherence&lt;br&gt;protocol" style="text;html=1;align=center;verticalAlign=middle;resizable=0;points=[];autosize=1;" vertex="1" parent="1">
          <mxGeometry x="304" y="270" width="110" height="30" as="geometry" />
        </mxCell>
        <mxCell id="bZIm4o_4vREuz8kMKyic-7" value="" style="endArrow=classic;startArrow=classic;html=1;strokeWidth=2;" edge="1" parent="1">
          <mxGeometry width="50" height="50" relative="1" as="geometry">
            <mxPoint x="119" y="410" as="sourcePoint" />
            <mxPoint x="599" y="410" as="targetPoint" />
          </mxGeometry>
        </mxCell>
        <mxCell id="bZIm4o_4vREuz8kMKyic-8" value="" style="endArrow=classic;html=1;strokeWidth=2;exitX=0.08;exitY=0.975;exitDx=0;exitDy=0;exitPerimeter=0;" edge="1" parent="1" source="bZIm4o_4vREuz8kMKyic-2">
          <mxGeometry width="50" height="50" relative="1" as="geometry">
            <mxPoint x="240" y="540" as="sourcePoint" />
            <mxPoint x="208" y="410" as="targetPoint" />
          </mxGeometry>
        </mxCell>
        <mxCell id="bZIm4o_4vREuz8kMKyic-9" value="" style="endArrow=classic;startArrow=classic;html=1;strokeWidth=2;entryX=0.83;entryY=1;entryDx=0;entryDy=0;entryPerimeter=0;" edge="1" parent="1" target="bZIm4o_4vREuz8kMKyic-2">
          <mxGeometry width="50" height="50" relative="1" as="geometry">
            <mxPoint x="283" y="410" as="sourcePoint" />
            <mxPoint x="310" y="540" as="targetPoint" />
          </mxGeometry>
        </mxCell>
        <mxCell id="bZIm4o_4vREuz8kMKyic-10" value="" style="endArrow=classic;startArrow=classic;html=1;strokeWidth=2;entryX=0.83;entryY=1;entryDx=0;entryDy=0;entryPerimeter=0;" edge="1" parent="1">
          <mxGeometry width="50" height="50" relative="1" as="geometry">
            <mxPoint x="500" y="410" as="sourcePoint" />
            <mxPoint x="500" y="360" as="targetPoint" />
          </mxGeometry>
        </mxCell>
        <mxCell id="bZIm4o_4vREuz8kMKyic-11" value="" style="endArrow=classic;html=1;strokeWidth=2;exitX=0.08;exitY=0.975;exitDx=0;exitDy=0;exitPerimeter=0;" edge="1" parent="1">
          <mxGeometry width="50" height="50" relative="1" as="geometry">
            <mxPoint x="430" y="360" as="sourcePoint" />
            <mxPoint x="430" y="411" as="targetPoint" />
          </mxGeometry>
        </mxCell>
        <mxCell id="bZIm4o_4vREuz8kMKyic-12" value="Memory" style="rounded=0;whiteSpace=wrap;html=1;fillColor=#dae8fc;strokeColor=#6c8ebf;" vertex="1" parent="1">
          <mxGeometry x="304" y="470" width="120" height="90" as="geometry" />
        </mxCell>
        <mxCell id="bZIm4o_4vREuz8kMKyic-13" value="" style="endArrow=classic;startArrow=classic;html=1;strokeWidth=2;" edge="1" parent="1">
          <mxGeometry width="50" height="50" relative="1" as="geometry">
            <mxPoint x="360" y="470" as="sourcePoint" />
            <mxPoint x="360" y="410" as="targetPoint" />
          </mxGeometry>
        </mxCell>
        <mxCell id="bZIm4o_4vREuz8kMKyic-14" value="#Lock" style="text;html=1;align=center;verticalAlign=middle;resizable=0;points=[];autosize=1;" vertex="1" parent="1">
          <mxGeometry x="505" y="370" width="50" height="20" as="geometry" />
        </mxCell>
      </root>
    </mxGraphModel>
  </diagram>
</mxfile>
